<?xml version="1.0" encoding="UTF-8"?>
<!DOCTYPE svg PUBLIC "-//W3C//DTD SVG 1.1//EN" "http://www.w3.org/Graphics/SVG/1.1/DTD/svg11.dtd">
<svg xmlns="http://www.w3.org/2000/svg" version="1.1" width="324px" height="324px" style="shape-rendering:geometricPrecision; text-rendering:geometricPrecision; image-rendering:optimizeQuality; fill-rule:evenodd; clip-rule:evenodd" xmlns:xlink="http://www.w3.org/1999/xlink">
<g><path style="opacity:1" fill="#f29113" d="M 165.5,15.5 C 166.692,24.3366 169.692,32.3366 174.5,39.5C 174.5,39.8333 174.5,40.1667 174.5,40.5C 174.5,43.5 174.5,46.5 174.5,49.5C 164.773,50.1389 155.44,49.4722 146.5,47.5C 150.163,46.6959 153.829,47.0293 157.5,48.5C 162.45,47.3319 167.283,46.6653 172,46.5C 172.201,43.4853 171.868,40.4853 171,37.5C 169.323,35.4748 168.323,33.1415 168,30.5C 166.984,31.6341 166.317,31.3008 166,29.5C 165.206,26.5285 164.539,23.5285 164,20.5C 163.355,19.354 162.522,18.354 161.5,17.5C 162.485,15.9017 162.651,14.235 162,12.5C 156.803,18.8927 153.637,26.2261 152.5,34.5C 151.583,35.1272 150.583,35.4606 149.5,35.5C 149.5,34.1667 149.5,32.8333 149.5,31.5C 153.327,24.2052 156.494,16.5385 159,8.5C 160,7.16667 161,7.16667 162,8.5C 162.67,11.1739 163.837,13.5073 165.5,15.5 Z"/></g>
<g><path style="opacity:0.58" fill="#d89b46" d="M 165.5,15.5 C 168.871,23.2698 171.871,31.2698 174.5,39.5C 169.692,32.3366 166.692,24.3366 165.5,15.5 Z"/></g>
<g><path style="opacity:1" fill="#fd9003" d="M 146.5,47.5 C 147.132,43.2976 148.132,39.2976 149.5,35.5C 150.583,35.4606 151.583,35.1272 152.5,34.5C 153.637,26.2261 156.803,18.8927 162,12.5C 162.651,14.235 162.485,15.9017 161.5,17.5C 162.522,18.354 163.355,19.354 164,20.5C 164.539,23.5285 165.206,26.5285 166,29.5C 166.317,31.3008 166.984,31.6341 168,30.5C 168.323,33.1415 169.323,35.4748 171,37.5C 171.868,40.4853 172.201,43.4853 172,46.5C 167.283,46.6653 162.45,47.3319 157.5,48.5C 153.829,47.0293 150.163,46.6959 146.5,47.5 Z"/></g>
<g><path style="opacity:0.439" fill="#dfa650" d="M 165.5,15.5 C 163.837,13.5073 162.67,11.1739 162,8.5C 161,7.16667 160,7.16667 159,8.5C 156.494,16.5385 153.327,24.2052 149.5,31.5C 152.51,22.4702 155.676,13.4702 159,4.5C 160,3.16667 161,3.16667 162,4.5C 163.674,8.02066 164.84,11.6873 165.5,15.5 Z"/></g>
<g><path style="opacity:1" fill="#e79c3a" d="M 100.5,25.5 C 101.239,25.369 101.906,25.5357 102.5,26C 106.67,31.0023 111.004,35.8356 115.5,40.5C 113.22,39.3599 110.886,38.1932 108.5,37C 105.69,32.3561 102.023,28.5227 97.5,25.5C 96.52,28.0865 96.1866,30.7531 96.5,33.5C 95.3567,30.0242 95.1901,26.3575 96,22.5C 97.2708,23.8825 98.7708,24.8825 100.5,25.5 Z"/></g>
<g><path style="opacity:0.086" fill="#d7aa5c" d="M 100.5,25.5 C 98.7708,24.8825 97.2708,23.8825 96,22.5C 95.1901,26.3575 95.3567,30.0242 96.5,33.5C 96.5,36.8333 96.5,40.1667 96.5,43.5C 94.6125,36.0279 94.2792,28.3612 95.5,20.5C 98.2123,21.212 99.8789,22.8787 100.5,25.5 Z"/></g>
<g><path style="opacity:1" fill="#f99009" d="M 115.5,40.5 C 117.86,44.5243 121.194,47.5243 125.5,49.5C 126.379,51.228 127.046,53.0614 127.5,55C 127.167,55.8333 126.833,56.6667 126.5,57.5C 118.025,60.3531 110.025,64.0197 102.5,68.5C 100.462,67.3384 99.1282,65.6717 98.5,63.5C 98.5,63.1667 98.5,62.8333 98.5,62.5C 99.1229,55.7453 98.4563,49.412 96.5,43.5C 96.5,40.1667 96.5,36.8333 96.5,33.5C 96.1866,30.7531 96.52,28.0865 97.5,25.5C 102.023,28.5227 105.69,32.3561 108.5,37C 110.886,38.1932 113.22,39.3599 115.5,40.5 Z"/></g>
<g><path style="opacity:0.729" fill="#e1a24a" d="M 212.5,34.5 C 208.732,38.8769 204.399,42.5435 199.5,45.5C 203.268,41.1231 207.601,37.4565 212.5,34.5 Z"/></g>
<g><path style="opacity:0.329" fill="#d69544" d="M 115.5,40.5 C 119.456,42.7881 122.789,45.7881 125.5,49.5C 121.194,47.5243 117.86,44.5243 115.5,40.5 Z"/></g>
<g><path style="opacity:0.839" fill="#db8e22" d="M 149.5,31.5 C 149.5,32.8333 149.5,34.1667 149.5,35.5C 148.132,39.2976 147.132,43.2976 146.5,47.5C 155.44,49.4722 164.773,50.1389 174.5,49.5C 174.5,46.5 174.5,43.5 174.5,40.5C 175.738,42.2143 176.405,44.2143 176.5,46.5C 176.5,47.8333 176.5,49.1667 176.5,50.5C 165.833,50.5 155.167,50.5 144.5,50.5C 144.833,47.8333 145.167,45.1667 145.5,42.5C 146.082,38.468 147.416,34.8013 149.5,31.5 Z"/></g>
<g><path style="opacity:0.624" fill="#d6a859" d="M 199.5,45.5 C 198.833,46.5 198.167,47.5 197.5,48.5C 195.043,50.0009 195.043,51.6676 197.5,53.5C 195.616,53.2882 194.283,52.2882 193.5,50.5C 194.931,48.0623 196.931,46.3956 199.5,45.5 Z"/></g>
<g><path style="opacity:0.493" fill="#e29f46" d="M 96.5,43.5 C 98.4563,49.412 99.1229,55.7453 98.5,62.5C 96.9057,56.4056 96.239,50.0723 96.5,43.5 Z"/></g>
<g><path style="opacity:0.15" fill="#d49a48" d="M 145.5,42.5 C 145.167,45.1667 144.833,47.8333 144.5,50.5C 155.167,50.5 165.833,50.5 176.5,50.5C 176.5,49.1667 176.5,47.8333 176.5,46.5C 179.038,48.3224 179.038,50.3224 176.5,52.5C 165.546,51.6885 154.546,51.1885 143.5,51C 142.784,47.9038 143.451,45.0705 145.5,42.5 Z"/></g>
<g><path style="opacity:1" fill="#f99008" d="M 219.5,55.5 C 218.801,57.556 217.801,59.556 216.5,61.5C 214.167,59.6667 211.833,57.8333 209.5,56C 206.711,55.7586 204.044,55.092 201.5,54C 202.91,53.6322 203.91,52.7989 204.5,51.5C 202.236,50.1308 199.903,49.1308 197.5,48.5C 198.167,47.5 198.833,46.5 199.5,45.5C 204.399,42.5435 208.732,38.8769 212.5,34.5C 215.603,32.5767 218.603,30.41 221.5,28C 222.448,27.5172 223.448,27.3505 224.5,27.5C 224.12,37.1182 222.453,46.4515 219.5,55.5 Z"/></g>
<g><path style="opacity:0.949" fill="#e29e46" d="M 215.5,63.5 C 216.833,63.5 218.167,63.5 219.5,63.5C 219.5,60.8333 219.5,58.1667 219.5,55.5C 222.453,46.4515 224.12,37.1182 224.5,27.5C 223.448,27.3505 222.448,27.5172 221.5,28C 218.603,30.41 215.603,32.5767 212.5,34.5C 216.269,29.6954 220.769,25.6954 226,22.5C 226.991,23.4296 227.491,24.5962 227.5,26C 225.161,38.869 222.661,51.7024 220,64.5C 218.085,65.9156 216.585,65.5822 215.5,63.5 Z"/></g>
<g><path style="opacity:1" fill="#ec9524" d="M 197.5,48.5 C 199.903,49.1308 202.236,50.1308 204.5,51.5C 203.91,52.7989 202.91,53.6322 201.5,54C 204.044,55.092 206.711,55.7586 209.5,56C 211.833,57.8333 214.167,59.6667 216.5,61.5C 217.801,59.556 218.801,57.556 219.5,55.5C 219.5,58.1667 219.5,60.8333 219.5,63.5C 218.167,63.5 216.833,63.5 215.5,63.5C 209.17,60.6704 203.17,57.337 197.5,53.5C 195.043,51.6676 195.043,50.0009 197.5,48.5 Z"/></g>
<g><path style="opacity:0.067" fill="#d1964b" d="M 154.5,61.5 C 158.319,60.8344 162.319,60.5011 166.5,60.5C 172.74,60.3332 178.74,60.9999 184.5,62.5C 182.167,62.5 179.833,62.5 177.5,62.5C 170.018,61.508 162.352,61.1746 154.5,61.5 Z"/></g>
<g><path style="opacity:1" fill="#e0a555" d="M 271.5,70.5 C 271.629,68.7839 271.962,67.1172 272.5,65.5C 273.341,63.6208 273.675,61.6208 273.5,59.5C 272.167,59.5 270.833,59.5 269.5,59.5C 271.318,57.4331 273.651,56.0997 276.5,55.5C 276.833,56.3333 277.167,57.1667 277.5,58C 275.778,62.3499 273.778,66.5166 271.5,70.5 Z"/></g>
<g><path style="opacity:0.847" fill="#e29c3c" d="M 269.5,59.5 C 265.731,63.5965 261.064,65.9299 255.5,66.5C 259.849,63.6589 264.516,61.3255 269.5,59.5 Z"/></g>
<g><path style="opacity:1" fill="#ef9115" d="M 177.5,62.5 C 179.833,62.5 182.167,62.5 184.5,62.5C 185.5,62.5 186.5,62.5 187.5,62.5C 189.834,65.1543 192.834,66.4876 196.5,66.5C 196.5,67.5 196.5,68.5 196.5,69.5C 195.167,69.5 193.833,69.5 192.5,69.5C 178.322,66.2893 163.989,65.6226 149.5,67.5C 145.168,68.0965 140.835,68.2632 136.5,68C 149.635,62.939 163.302,61.1057 177.5,62.5 Z"/></g>
<g><path style="opacity:1" fill="#e3a958" d="M 51.5,66.5 C 49.7376,66.6427 48.0709,66.3094 46.5,65.5C 44.8888,66.3202 44.2222,67.6536 44.5,69.5C 41.1148,67.2425 40.9482,64.9092 44,62.5C 46.7685,63.4657 49.2685,64.799 51.5,66.5 Z"/></g>
<g><path style="opacity:0.729" fill="#dd9c41" d="M 125.5,49.5 C 127.812,51.1455 129.812,53.1455 131.5,55.5C 121.64,61.5975 111.307,66.9309 100.5,71.5C 99.914,71.2907 99.414,70.9574 99,70.5C 98.5034,68.1902 98.3367,65.8568 98.5,63.5C 99.1282,65.6717 100.462,67.3384 102.5,68.5C 110.025,64.0197 118.025,60.3531 126.5,57.5C 126.833,56.6667 127.167,55.8333 127.5,55C 127.046,53.0614 126.379,51.228 125.5,49.5 Z"/></g>
<g><path style="opacity:0.38" fill="#e09f4c" d="M 192.5,69.5 C 192.5,69.8333 192.5,70.1667 192.5,70.5C 177.234,67.06 161.9,66.7267 146.5,69.5C 147.5,68.8333 148.5,68.1667 149.5,67.5C 163.989,65.6226 178.322,66.2893 192.5,69.5 Z"/></g>
<g><path style="opacity:1" fill="#f9900a" d="M 269.5,59.5 C 270.833,59.5 272.167,59.5 273.5,59.5C 273.675,61.6208 273.341,63.6208 272.5,65.5C 271.5,65.5 270.5,65.5 269.5,65.5C 269.657,66.8734 269.49,68.2068 269,69.5C 266.782,73.9769 264.282,78.3102 261.5,82.5C 262.544,84.7676 262.711,87.1009 262,89.5C 260.32,88.3966 258.82,88.7299 257.5,90.5C 256.378,89.3698 255.044,88.7031 253.5,88.5C 251.516,85.8361 248.849,84.1695 245.5,83.5C 244.627,81.1137 243.127,79.1137 241,77.5C 240.517,76.552 240.351,75.552 240.5,74.5C 242.179,74.7148 243.179,74.0481 243.5,72.5C 247.217,69.9751 251.217,67.9751 255.5,66.5C 261.064,65.9299 265.731,63.5965 269.5,59.5 Z"/></g>
<g><path style="opacity:1" fill="#ea9526" d="M 187.5,62.5 C 206.183,66.5032 222.183,75.1698 235.5,88.5C 236.713,91.2254 238.546,93.5588 241,95.5C 241.49,96.7932 241.657,98.1266 241.5,99.5C 240.448,99.6495 239.448,99.4828 238.5,99C 233.86,93.5144 228.527,89.0144 222.5,85.5C 213.019,79.4261 203.019,74.4261 192.5,70.5C 192.5,70.1667 192.5,69.8333 192.5,69.5C 193.833,69.5 195.167,69.5 196.5,69.5C 196.5,68.5 196.5,67.5 196.5,66.5C 192.834,66.4876 189.834,65.1543 187.5,62.5 Z"/></g>
<g><path style="opacity:1" fill="#e9942a" d="M 154.5,61.5 C 162.352,61.1746 170.018,61.508 177.5,62.5C 163.302,61.1057 149.635,62.939 136.5,68C 140.835,68.2632 145.168,68.0965 149.5,67.5C 148.5,68.1667 147.5,68.8333 146.5,69.5C 130.125,74.0199 115.458,81.6866 102.5,92.5C 101.357,92.0919 100.357,91.4252 99.5,90.5C 100.559,88.4664 101.559,86.4664 102.5,84.5C 117.292,71.4444 134.626,63.7777 154.5,61.5 Z"/></g>
<g><path style="opacity:1" fill="#ef9522" d="M 272.5,65.5 C 271.962,67.1172 271.629,68.7839 271.5,70.5C 268.89,77.9992 265.89,85.3325 262.5,92.5C 258.59,93.5208 255.59,92.1875 253.5,88.5C 255.044,88.7031 256.378,89.3698 257.5,90.5C 258.82,88.7299 260.32,88.3966 262,89.5C 262.711,87.1009 262.544,84.7676 261.5,82.5C 264.282,78.3102 266.782,73.9769 269,69.5C 269.49,68.2068 269.657,66.8734 269.5,65.5C 270.5,65.5 271.5,65.5 272.5,65.5 Z"/></g>
<g><path style="opacity:1" fill="#fa9006" d="M 62.5,70.5 C 63.1667,70.5 63.5,70.8333 63.5,71.5C 67.8141,76.0761 72.8141,78.9094 78.5,80C 79.6411,82.3079 81.3078,84.1413 83.5,85.5C 82.6906,87.0709 82.3573,88.7376 82.5,90.5C 76.562,90.9285 73.2287,94.2618 72.5,100.5C 71.1266,100.343 69.7932,100.51 68.5,101C 69.7414,102.487 69.2414,103.32 67,103.5C 65.7741,103.355 64.6074,103.022 63.5,102.5C 59.9404,98.0475 57.4404,93.0475 56,87.5C 55.1841,86.1772 54.0174,85.5106 52.5,85.5C 52.5,85.1667 52.5,84.8333 52.5,84.5C 51.7347,81.9039 51.4013,79.2372 51.5,76.5C 50.5,76.5 49.5,76.5 48.5,76.5C 48.4921,73.4552 48.1587,70.4552 47.5,67.5C 52.1845,68.0854 56.6845,69.4187 61,71.5C 61.7648,71.4301 62.2648,71.0967 62.5,70.5 Z"/></g>
<g><path style="opacity:0.376" fill="#d6a555" d="M 243.5,72.5 C 243.179,74.0481 242.179,74.7148 240.5,74.5C 240.351,75.552 240.517,76.552 241,77.5C 243.127,79.1137 244.627,81.1137 245.5,83.5C 242.653,81.4865 240.32,78.9865 238.5,76C 239.43,73.8616 241.097,72.695 243.5,72.5 Z"/></g>
<g><path style="opacity:1" fill="#e7993a" d="M 51.5,66.5 C 55.1667,67.8333 58.8333,69.1667 62.5,70.5C 62.2648,71.0967 61.7648,71.4301 61,71.5C 56.6845,69.4187 52.1845,68.0854 47.5,67.5C 48.1587,70.4552 48.4921,73.4552 48.5,76.5C 49.5,76.5 50.5,76.5 51.5,76.5C 51.4013,79.2372 51.7347,81.9039 52.5,84.5C 49.0734,79.9843 46.4068,74.9843 44.5,69.5C 44.2222,67.6536 44.8888,66.3202 46.5,65.5C 48.0709,66.3094 49.7376,66.6427 51.5,66.5 Z"/></g>
<g><path style="opacity:1" fill="#e7942d" d="M 63.5,71.5 C 71.4365,74.7581 79.4365,77.9248 87.5,81C 88.5536,82.3876 88.7203,83.8876 88,85.5C 85.724,86.7619 83.8907,88.4286 82.5,90.5C 82.3573,88.7376 82.6906,87.0709 83.5,85.5C 81.3078,84.1413 79.6411,82.3079 78.5,80C 72.8141,78.9094 67.8141,76.0761 63.5,71.5 Z"/></g>
<g><path style="opacity:1" fill="#e59931" d="M 102.5,84.5 C 101.559,86.4664 100.559,88.4664 99.5,90.5C 100.357,91.4252 101.357,92.0919 102.5,92.5C 86.0415,109.425 76.5415,129.758 74,153.5C 71.9592,154.423 69.7925,154.756 67.5,154.5C 67.4734,144.3 69.4734,134.633 73.5,125.5C 79.0139,108.773 88.6806,95.1063 102.5,84.5 Z"/></g>
<g><path style="opacity:0.992" fill="#dba047" d="M 245.5,83.5 C 248.849,84.1695 251.516,85.8361 253.5,88.5C 255.59,92.1875 258.59,93.5208 262.5,92.5C 262.315,94.1958 261.481,95.5291 260,96.5C 254.972,92.3011 250.139,87.9678 245.5,83.5 Z"/></g>
<g><path style="opacity:0.945" fill="#e2952d" d="M 82.5,90.5 C 79.5,94.1667 76.1667,97.5 72.5,100.5C 73.2287,94.2618 76.562,90.9285 82.5,90.5 Z"/></g>
<g><path style="opacity:1" fill="#e29d3e" d="M 222.5,85.5 C 228.527,89.0144 233.86,93.5144 238.5,99C 239.448,99.4828 240.448,99.6495 241.5,99.5C 241.657,98.1266 241.49,96.7932 241,95.5C 238.546,93.5588 236.713,91.2254 235.5,88.5C 240.445,92.413 244.445,97.0797 247.5,102.5C 245.757,100.564 243.757,100.23 241.5,101.5C 243.511,105.522 245.511,109.522 247.5,113.5C 244.197,109.349 241.03,105.015 238,100.5C 232.938,95.2694 227.771,90.2694 222.5,85.5 Z"/></g>
<g><path style="opacity:1" fill="#e09a38" d="M 52.5,85.5 C 54.0174,85.5106 55.1841,86.1772 56,87.5C 57.4404,93.0475 59.9404,98.0475 63.5,102.5C 64.6074,103.022 65.7741,103.355 67,103.5C 69.2414,103.32 69.7414,102.487 68.5,101C 69.7932,100.51 71.1266,100.343 72.5,100.5C 71.0939,103.414 69.0939,105.914 66.5,108C 65.365,108.749 64.365,108.583 63.5,107.5C 59.809,100.153 56.1423,92.8194 52.5,85.5 Z"/></g>
<g><path style="opacity:1" fill="#f39115" d="M 247.5,102.5 C 247.132,105.624 248.298,107.957 251,109.5C 251.494,111.134 251.66,112.801 251.5,114.5C 250.167,114.5 248.833,114.5 247.5,114.5C 247.5,114.167 247.5,113.833 247.5,113.5C 245.511,109.522 243.511,105.522 241.5,101.5C 243.757,100.23 245.757,100.564 247.5,102.5 Z"/></g>
<g><path style="opacity:0.835" fill="#c2333b" d="M 176.5,129.5 C 177.126,124.555 176.126,120.055 173.5,116C 169.051,114.561 164.718,114.061 160.5,114.5C 170.301,110.594 176.301,113.761 178.5,124C 178.607,126.221 177.94,128.054 176.5,129.5 Z"/></g>
<g><path style="opacity:1" fill="#ec9527" d="M 299.5,112.5 C 301.607,113.468 303.941,113.802 306.5,113.5C 306.567,114.959 306.234,116.292 305.5,117.5C 299.423,123.238 292.756,128.238 285.5,132.5C 286.3,128.699 288.633,126.699 292.5,126.5C 292.5,125.5 292.5,124.5 292.5,123.5C 296.734,123.594 299.067,121.594 299.5,117.5C 300.978,117.762 302.311,117.429 303.5,116.5C 303.291,115.914 302.957,115.414 302.5,115C 292.15,114.673 281.817,114.173 271.5,113.5C 271.5,117.167 271.5,120.833 271.5,124.5C 269.153,120.608 268.486,116.441 269.5,112C 279.481,112.213 289.481,112.379 299.5,112.5 Z"/></g>
<g><path style="opacity:1" fill="#fb9006" d="M 285.5,132.5 C 284.127,132.343 282.793,132.51 281.5,133C 280.631,135.368 278.965,136.868 276.5,137.5C 274.83,134.801 273.163,132.135 271.5,129.5C 271.5,127.833 271.5,126.167 271.5,124.5C 271.5,120.833 271.5,117.167 271.5,113.5C 281.817,114.173 292.15,114.673 302.5,115C 302.957,115.414 303.291,115.914 303.5,116.5C 302.311,117.429 300.978,117.762 299.5,117.5C 299.067,121.594 296.734,123.594 292.5,123.5C 292.5,124.5 292.5,125.5 292.5,126.5C 288.633,126.699 286.3,128.699 285.5,132.5 Z"/></g>
<g><path style="opacity:0.231" fill="#d4a554" d="M 299.5,112.5 C 302.833,112.5 306.167,112.5 309.5,112.5C 309.631,115.367 308.297,117.033 305.5,117.5C 306.234,116.292 306.567,114.959 306.5,113.5C 303.941,113.802 301.607,113.468 299.5,112.5 Z"/></g>
<g><path style="opacity:0.29" fill="#dc9d54" d="M 299.5,112.5 C 289.481,112.379 279.481,112.213 269.5,112C 268.486,116.441 269.153,120.608 271.5,124.5C 271.5,126.167 271.5,127.833 271.5,129.5C 269.47,124.402 267.803,119.069 266.5,113.5C 266.608,112.558 266.941,111.725 267.5,111C 278.361,110.435 289.028,110.935 299.5,112.5 Z"/></g>
<g><path style="opacity:1" fill="#e71017" d="M 160.5,114.5 C 164.718,114.061 169.051,114.561 173.5,116C 176.126,120.055 177.126,124.555 176.5,129.5C 175.833,130.833 174.833,131.833 173.5,132.5C 170.648,133.258 167.981,133.258 165.5,132.5C 167.317,131.781 167.984,130.781 167.5,129.5C 171.197,130.837 173.53,129.503 174.5,125.5C 172.957,122.914 171.291,120.414 169.5,118C 167.975,116.991 166.308,116.491 164.5,116.5C 164.5,117.833 164.5,119.167 164.5,120.5C 161.739,119.915 160.073,120.915 159.5,123.5C 160.685,126.592 162.019,129.592 163.5,132.5C 160.909,131.746 159.076,130.079 158,127.5C 157.532,123.373 158.032,119.373 159.5,115.5C 159.5,114.833 159.833,114.5 160.5,114.5 Z"/></g>
<g><path style="opacity:1" fill="#e19e3d" d="M 61.5,142.5 C 60.8418,141.207 60.5085,139.707 60.5,138C 61.6594,131.546 62.326,125.046 62.5,118.5C 48.4394,121.366 34.2727,124.033 20,126.5C 18.7425,126.85 18.4092,127.517 19,128.5C 22.5013,130.488 25.668,132.822 28.5,135.5C 24.4023,133.952 20.4023,132.119 16.5,130C 14.5794,128.759 14.246,127.259 15.5,125.5C 31.4385,122.078 47.4385,119.245 63.5,117C 64.0968,118.062 64.4302,119.228 64.5,120.5C 63.1251,127.791 62.1251,135.124 61.5,142.5 Z"/></g>
<g><path style="opacity:0.694" fill="#bd2f35" d="M 159.5,115.5 C 158.032,119.373 157.532,123.373 158,127.5C 159.076,130.079 160.909,131.746 163.5,132.5C 164.167,132.5 164.833,132.5 165.5,132.5C 167.981,133.258 170.648,133.258 173.5,132.5C 167.312,135.826 161.812,134.826 157,129.5C 154.505,124.13 155.338,119.464 159.5,115.5 Z"/></g>
<g><path style="opacity:1" fill="#1d3f6b" d="M 149.5,136.5 C 146.886,136.723 145.219,135.556 144.5,133C 140.697,130.929 137.03,128.596 133.5,126C 128.798,125.172 124.131,125.338 119.5,126.5C 120.48,127.981 121.647,129.315 123,130.5C 123.74,131.749 123.573,132.749 122.5,133.5C 119.369,130.871 116.369,128.038 113.5,125C 123.495,120.852 132.829,122.186 141.5,129C 144.666,131 147.332,133.5 149.5,136.5 Z"/></g>
<g><path style="opacity:1" fill="#f70713" d="M 165.5,132.5 C 164.833,132.5 164.167,132.5 163.5,132.5C 162.019,129.592 160.685,126.592 159.5,123.5C 160.073,120.915 161.739,119.915 164.5,120.5C 164.5,119.167 164.5,117.833 164.5,116.5C 166.308,116.491 167.975,116.991 169.5,118C 171.291,120.414 172.957,122.914 174.5,125.5C 173.53,129.503 171.197,130.837 167.5,129.5C 167.984,130.781 167.317,131.781 165.5,132.5 Z"/></g>
<g><path style="opacity:1" fill="#f9900a" d="M 61.5,142.5 C 61.5,143.167 61.1667,143.5 60.5,143.5C 59.8718,145.672 58.5384,147.338 56.5,148.5C 53.4762,146.478 50.1429,145.478 46.5,145.5C 43.6689,144.921 41.3356,143.588 39.5,141.5C 36.7948,137.807 33.1281,135.807 28.5,135.5C 25.668,132.822 22.5013,130.488 19,128.5C 18.4092,127.517 18.7425,126.85 20,126.5C 34.2727,124.033 48.4394,121.366 62.5,118.5C 62.326,125.046 61.6594,131.546 60.5,138C 60.5085,139.707 60.8418,141.207 61.5,142.5 Z"/></g>
<g><path style="opacity:0.722" fill="#b2282c" d="M 230.5,137.5 C 230.881,134.042 231.381,130.708 232,127.5C 221.275,134.364 213.442,143.364 208.5,154.5C 207.5,154.5 206.5,154.5 205.5,154.5C 212.675,142.153 222.175,131.82 234,123.5C 234.925,124.047 235.758,124.713 236.5,125.5C 234.454,129.592 232.454,133.592 230.5,137.5 Z"/></g>
<g><path style="opacity:1" fill="#ef9014" d="M 73.5,125.5 C 76.908,120.357 80.0746,115.024 83,109.5C 83.414,109.043 83.914,108.709 84.5,108.5C 85.4519,110.045 85.7852,111.712 85.5,113.5C 84.5,113.5 83.5,113.5 82.5,113.5C 78.1743,125.826 74.841,138.493 72.5,151.5C 71.5,151.5 70.5,151.5 69.5,151.5C 70.8257,142.842 72.1591,134.175 73.5,125.5 Z"/></g>
<g><path style="opacity:0.188" fill="#e19c3f" d="M 247.5,102.5 C 258.894,117.507 265.06,134.507 266,153.5C 264,154.833 262,154.833 260,153.5C 258.13,143.354 255.63,133.354 252.5,123.5C 250.595,120.696 248.929,117.696 247.5,114.5C 248.833,114.5 250.167,114.5 251.5,114.5C 251.66,112.801 251.494,111.134 251,109.5C 248.298,107.957 247.132,105.624 247.5,102.5 Z"/></g>
<g><path style="opacity:1" fill="#ee9316" d="M 252.5,123.5 C 251.795,120.756 251.795,118.089 252.5,115.5C 256.734,118.95 258.401,123.283 257.5,128.5C 255.408,127.175 253.741,125.509 252.5,123.5 Z"/></g>
<g><path style="opacity:1" fill="#f09215" d="M 257.5,129.5 C 260.188,130.024 261.688,131.691 262,134.5C 263.807,140.369 264.641,146.369 264.5,152.5C 263.178,152.67 262.011,152.337 261,151.5C 259.635,144.255 258.468,136.922 257.5,129.5 Z"/></g>
<g><path style="opacity:0.263" fill="#dfa44e" d="M 271.5,129.5 C 273.163,132.135 274.83,134.801 276.5,137.5C 278.965,136.868 280.631,135.368 281.5,133C 282.793,132.51 284.127,132.343 285.5,132.5C 282.524,135.302 279.358,137.969 276,140.5C 273.143,137.422 271.643,133.756 271.5,129.5 Z"/></g>
<g><path style="opacity:0.69" fill="#df9f48" d="M 28.5,135.5 C 33.1281,135.807 36.7948,137.807 39.5,141.5C 35.3447,140.258 31.678,138.258 28.5,135.5 Z"/></g>
<g><path style="opacity:1" fill="#043f85" d="M 174.5,207.5 C 169.02,218.329 166.52,229.995 167,242.5C 165.644,243.38 164.144,243.714 162.5,243.5C 161.865,236.455 160.865,229.455 159.5,222.5C 161.07,219.218 160.403,216.551 157.5,214.5C 156.833,214.5 156.5,214.167 156.5,213.5C 157.158,212.207 157.492,210.707 157.5,209C 156.299,204.6 155.465,200.1 155,195.5C 153.621,191.152 151.787,187.152 149.5,183.5C 146.548,176.42 143.882,169.086 141.5,161.5C 143.075,158.042 143.575,154.376 143,150.5C 141.556,152.155 139.722,152.822 137.5,152.5C 137.995,148.497 136.495,145.497 133,143.5C 131.299,140.325 129.465,137.325 127.5,134.5C 126.478,134.855 125.811,135.522 125.5,136.5C 124.167,135.833 123.167,134.833 122.5,133.5C 123.573,132.749 123.74,131.749 123,130.5C 121.647,129.315 120.48,127.981 119.5,126.5C 124.131,125.338 128.798,125.172 133.5,126C 137.03,128.596 140.697,130.929 144.5,133C 145.219,135.556 146.886,136.723 149.5,136.5C 152.079,140.918 155.245,144.918 159,148.5C 159.816,149.823 160.983,150.489 162.5,150.5C 163.76,152.367 165.427,153.7 167.5,154.5C 170.225,153.287 172.559,151.454 174.5,149C 175.448,148.517 176.448,148.351 177.5,148.5C 177.33,147.178 177.663,146.011 178.5,145C 181.393,143.851 184.393,143.351 187.5,143.5C 187.214,141.723 186.547,140.056 185.5,138.5C 185.608,137.558 185.941,136.725 186.5,136C 189.209,135.459 191.209,133.959 192.5,131.5C 193.308,133.423 193.808,135.423 194,137.5C 196.069,134.685 198.569,132.352 201.5,130.5C 198.562,129.511 195.562,128.844 192.5,128.5C 195.208,125.791 198.208,123.458 201.5,121.5C 205.487,121.178 208.487,119.344 210.5,116C 214.79,115.077 219.123,114.577 223.5,114.5C 221.345,119.674 218.178,124.341 214,128.5C 212.488,127.743 211.154,126.743 210,125.5C 208.392,127.767 209.225,128.767 212.5,128.5C 212.26,133.086 210.26,136.753 206.5,139.5C 205.808,138.975 205.308,138.308 205,137.5C 203.65,141.622 202.15,145.622 200.5,149.5C 199.5,149.5 198.5,149.5 197.5,149.5C 197.098,153.063 195.931,156.729 194,160.5C 193.586,160.957 193.086,161.291 192.5,161.5C 191.833,160.167 191.167,158.833 190.5,157.5C 190.341,163.131 188.508,168.131 185,172.5C 182.967,177.457 181.467,182.623 180.5,188C 179.154,192.072 177.32,195.905 175,199.5C 174.503,202.146 174.336,204.813 174.5,207.5 Z"/></g>
<g><path style="opacity:1" fill="#0a3c74" d="M 192.5,128.5 C 195.562,128.844 198.562,129.511 201.5,130.5C 198.569,132.352 196.069,134.685 194,137.5C 193.808,135.423 193.308,133.423 192.5,131.5C 191.209,133.959 189.209,135.459 186.5,136C 185.941,136.725 185.608,137.558 185.5,138.5C 186.547,140.056 187.214,141.723 187.5,143.5C 184.393,143.351 181.393,143.851 178.5,145C 177.663,146.011 177.33,147.178 177.5,148.5C 176.448,148.351 175.448,148.517 174.5,149C 172.559,151.454 170.225,153.287 167.5,154.5C 175.133,145.2 183.466,136.533 192.5,128.5 Z"/></g>
<g><path style="opacity:1" fill="#15396d" d="M 174.5,207.5 C 174.336,204.813 174.503,202.146 175,199.5C 177.32,195.905 179.154,192.072 180.5,188C 181.467,182.623 182.967,177.457 185,172.5C 188.508,168.131 190.341,163.131 190.5,157.5C 191.167,158.833 191.833,160.167 192.5,161.5C 193.086,161.291 193.586,160.957 194,160.5C 195.931,156.729 197.098,153.063 197.5,149.5C 198.5,149.5 199.5,149.5 200.5,149.5C 202.15,145.622 203.65,141.622 205,137.5C 205.308,138.308 205.808,138.975 206.5,139.5C 210.26,136.753 212.26,133.086 212.5,128.5C 209.225,128.767 208.392,127.767 210,125.5C 211.154,126.743 212.488,127.743 214,128.5C 218.178,124.341 221.345,119.674 223.5,114.5C 219.123,114.577 214.79,115.077 210.5,116C 208.487,119.344 205.487,121.178 201.5,121.5C 209.35,113.417 219.017,109.417 230.5,109.5C 230.649,110.552 230.483,111.552 230,112.5C 205.028,140.324 186.528,171.991 174.5,207.5 Z"/></g>
<g><path style="opacity:0.773" fill="#113559" d="M 149.5,136.5 C 154.54,140.539 158.873,145.206 162.5,150.5C 160.983,150.489 159.816,149.823 159,148.5C 155.245,144.918 152.079,140.918 149.5,136.5 Z"/></g>
<g><path style="opacity:1" fill="#103b71" d="M 141.5,161.5 C 136.455,153.1 131.122,144.766 125.5,136.5C 125.811,135.522 126.478,134.855 127.5,134.5C 129.465,137.325 131.299,140.325 133,143.5C 136.495,145.497 137.995,148.497 137.5,152.5C 139.722,152.822 141.556,152.155 143,150.5C 143.575,154.376 143.075,158.042 141.5,161.5 Z"/></g>
<g><path style="opacity:1" fill="#28662a" d="M 135.5,164.5 C 130.894,158.556 125.894,152.89 120.5,147.5C 119.475,152.045 120.475,156.212 123.5,160C 123.043,160.414 122.709,160.914 122.5,161.5C 126.255,167.873 127.255,174.539 125.5,181.5C 122.149,167.623 118.315,153.957 114,140.5C 117.171,139.672 119.838,140.672 122,143.5C 126.521,150.557 131.021,157.557 135.5,164.5 Z"/></g>
<g><path style="opacity:1" fill="#e4b24f" d="M 311.5,149.5 C 310.221,148.032 308.554,147.365 306.5,147.5C 306.829,150.228 306.163,152.562 304.5,154.5C 304.631,149.776 305.964,145.443 308.5,141.5C 310.984,143.536 311.984,146.202 311.5,149.5 Z"/></g>
<g><path style="opacity:0.471" fill="#bc2429" d="M 230.5,137.5 C 227.342,146.32 224.008,154.987 220.5,163.5C 220.959,160.123 221.626,156.789 222.5,153.5C 224.241,149.842 225.575,146.008 226.5,142C 227.465,140.025 228.799,138.525 230.5,137.5 Z"/></g>
<g><path style="opacity:0.655" fill="#d29c44" d="M 60.5,143.5 C 60.6621,145.527 60.4955,147.527 60,149.5C 59.4806,150.516 58.6473,151.182 57.5,151.5C 53.6483,149.743 49.9816,147.743 46.5,145.5C 50.1429,145.478 53.4762,146.478 56.5,148.5C 58.5384,147.338 59.8718,145.672 60.5,143.5 Z"/></g>
<g><path style="opacity:1" fill="#d2161e" d="M 222.5,153.5 C 221.626,156.789 220.959,160.123 220.5,163.5C 219.907,166.945 218.907,170.279 217.5,173.5C 217.667,174.167 217.833,174.833 218,175.5C 218.708,174.619 219.542,173.953 220.5,173.5C 219.8,177.798 219.467,182.131 219.5,186.5C 217.896,185.713 217.229,184.38 217.5,182.5C 217.5,182.167 217.5,181.833 217.5,181.5C 217.5,181.167 217.5,180.833 217.5,180.5C 216.854,178.844 216.187,177.177 215.5,175.5C 217.007,171.856 217.34,168.189 216.5,164.5C 217.242,163.713 218.075,163.047 219,162.5C 219.333,159.833 219.667,157.167 220,154.5C 220.671,153.748 221.504,153.414 222.5,153.5 Z"/></g>
<g><path style="opacity:0.514" fill="#e4b955" d="M 303.5,155.5 C 304.582,157.327 304.582,159.327 303.5,161.5C 302.326,165.842 301.16,170.176 300,174.5C 299.617,175.056 299.117,175.389 298.5,175.5C 300.167,168.833 301.833,162.167 303.5,155.5 Z"/></g>
<g><path style="opacity:0.59" fill="#e9b64a" d="M 30.5,167.5 C 28.1167,162.69 26.1167,157.69 24.5,152.5C 23.5,152.5 22.5,152.5 21.5,152.5C 21.3742,165.183 21.7075,177.85 22.5,190.5C 20.7696,181.226 19.7696,171.726 19.5,162C 19.455,158.079 19.955,154.245 21,150.5C 22.5874,149.273 23.9207,149.606 25,151.5C 27.5355,156.607 29.3688,161.94 30.5,167.5 Z"/></g>
<g><path style="opacity:1" fill="#f10914" d="M 230.5,137.5 C 228.799,138.525 227.465,140.025 226.5,142C 225.575,146.008 224.241,149.842 222.5,153.5C 221.504,153.414 220.671,153.748 220,154.5C 219.667,157.167 219.333,159.833 219,162.5C 218.075,163.047 217.242,163.713 216.5,164.5C 217.34,168.189 217.007,171.856 215.5,175.5C 216.187,177.177 216.854,178.844 217.5,180.5C 216.167,180.833 216.167,181.167 217.5,181.5C 217.5,181.833 217.5,182.167 217.5,182.5C 217.167,182.5 216.833,182.5 216.5,182.5C 215.265,182.721 214.265,183.388 213.5,184.5C 212.505,190.128 212.171,195.794 212.5,201.5C 211.835,198.686 211.502,195.686 211.5,192.5C 211.467,186.645 212.134,180.979 213.5,175.5C 212.167,175.5 210.833,175.5 209.5,175.5C 211.086,172.729 211.586,169.729 211,166.5C 209.115,164.089 206.949,162.755 204.5,162.5C 203.481,163.687 202.314,164.687 201,165.5C 200.56,170.31 199.06,174.643 196.5,178.5C 197.5,178.5 198.5,178.5 199.5,178.5C 199.849,181.463 198.849,183.796 196.5,185.5C 195.749,184.624 195.249,183.624 195,182.5C 194.667,182.833 194.333,183.167 194,183.5C 188.411,192.677 183.911,202.344 180.5,212.5C 181.301,208.103 182.301,203.769 183.5,199.5C 185.234,195.7 187.234,192.034 189.5,188.5C 190.381,185.87 191.048,183.203 191.5,180.5C 195.083,175.673 197.916,170.339 200,164.5C 203.17,161.822 205.003,158.488 205.5,154.5C 206.5,154.5 207.5,154.5 208.5,154.5C 213.442,143.364 221.275,134.364 232,127.5C 231.381,130.708 230.881,134.042 230.5,137.5 Z"/></g>
<g><path style="opacity:1" fill="#296d26" d="M 106.5,159.5 C 104.519,161.303 102.352,162.97 100,164.5C 99.5662,167.502 98.3995,170.169 96.5,172.5C 98.6663,176.104 101,180.104 103.5,184.5C 95.0939,181.142 92.5939,175.142 96,166.5C 98.612,162.781 102.112,160.448 106.5,159.5 Z"/></g>
<g><path style="opacity:0.812" fill="#c4353d" d="M 237.5,185.5 C 238.267,172.384 232.601,168.384 220.5,173.5C 221.343,171.827 222.676,170.66 224.5,170C 234.81,168.644 239.644,173.144 239,183.5C 238.722,184.416 238.222,185.082 237.5,185.5 Z"/></g>
<g><path style="opacity:1" fill="#22691d" d="M 111.5,160.5 C 118.686,162.722 122.019,167.722 121.5,175.5C 120.1,176.1 119.1,177.1 118.5,178.5C 117.596,174.861 117.429,171.195 118,167.5C 117,166.167 116,166.167 115,167.5C 114.826,164.54 113.66,162.206 111.5,160.5 Z"/></g>
<g><path style="opacity:0.973" fill="#b92229" d="M 205.5,154.5 C 205.003,158.488 203.17,161.822 200,164.5C 197.916,170.339 195.083,175.673 191.5,180.5C 194.625,170.912 199.291,162.245 205.5,154.5 Z"/></g>
<g><path style="opacity:1" fill="#f3a915" d="M 311.5,149.5 C 312.121,168.827 312.455,188.161 312.5,207.5C 312.167,207.5 311.833,207.5 311.5,207.5C 311.047,203.471 310.38,199.471 309.5,195.5C 310.75,183.502 310.75,171.502 309.5,159.5C 308.158,158.098 307.324,158.431 307,160.5C 306.544,163.572 306.544,166.572 307,169.5C 305.294,171.705 303.794,174.038 302.5,176.5C 301.914,176.291 301.414,175.957 301,175.5C 300.289,177.899 300.456,180.232 301.5,182.5C 300.412,186.386 299.579,186.386 299,182.5C 297.491,185.329 297.325,188.162 298.5,191C 297.207,191.49 295.873,191.657 294.5,191.5C 296.063,186.161 297.396,180.827 298.5,175.5C 299.117,175.389 299.617,175.056 300,174.5C 301.16,170.176 302.326,165.842 303.5,161.5C 304.582,159.327 304.582,157.327 303.5,155.5C 303.5,154.833 303.833,154.5 304.5,154.5C 306.163,152.562 306.829,150.228 306.5,147.5C 308.554,147.365 310.221,148.032 311.5,149.5 Z"/></g>
<g><path style="opacity:0.631" fill="#e4b248" d="M 311.5,149.5 C 314.872,168.795 315.205,188.128 312.5,207.5C 312.455,188.161 312.121,168.827 311.5,149.5 Z"/></g>
<g><path style="opacity:1" fill="#e3aa41" d="M 30.5,167.5 C 32.4511,172.756 34.4511,178.09 36.5,183.5C 34.9826,183.489 33.8159,182.823 33,181.5C 32.1625,176.82 31.3292,172.154 30.5,167.5 Z"/></g>
<g><path style="opacity:1" fill="#147210" d="M 106.5,159.5 C 108.415,159.216 110.081,159.549 111.5,160.5C 113.66,162.206 114.826,164.54 115,167.5C 116,166.167 117,166.167 118,167.5C 117.429,171.195 117.596,174.861 118.5,178.5C 115.233,183.378 110.567,185.378 104.5,184.5C 104.167,184.5 103.833,184.5 103.5,184.5C 101,180.104 98.6663,176.104 96.5,172.5C 98.3995,170.169 99.5662,167.502 100,164.5C 102.352,162.97 104.519,161.303 106.5,159.5 Z"/></g>
<g><path style="opacity:0.345" fill="#306532" d="M 121.5,175.5 C 118.612,184.004 112.945,187.004 104.5,184.5C 110.567,185.378 115.233,183.378 118.5,178.5C 119.1,177.1 120.1,176.1 121.5,175.5 Z"/></g>
<g><path style="opacity:1" fill="#f10a14" d="M 237.5,185.5 C 237.672,186.492 237.338,187.158 236.5,187.5C 236.44,186.957 236.107,186.624 235.5,186.5C 232.83,188.372 229.83,189.372 226.5,189.5C 224.223,188.522 221.89,187.855 219.5,187.5C 219.5,187.167 219.5,186.833 219.5,186.5C 219.467,182.131 219.8,177.798 220.5,173.5C 232.601,168.384 238.267,172.384 237.5,185.5 Z"/></g>
<g><path style="opacity:0.396" fill="#c72729" d="M 271.5,189.5 C 272.369,187.283 272.702,184.95 272.5,182.5C 270.152,182.33 267.818,181.997 265.5,181.5C 258.078,183.191 250.745,184.858 243.5,186.5C 252.429,181.364 262.095,179.198 272.5,180C 276.753,183.859 276.42,187.026 271.5,189.5 Z"/></g>
<g><path style="opacity:1" fill="#137310" d="M 135.5,164.5 C 138.258,167.678 140.258,171.345 141.5,175.5C 141.358,183.241 143.525,190.241 148,196.5C 150.167,205.202 152.334,213.869 154.5,222.5C 155.507,233.85 156.507,245.183 157.5,256.5C 156.849,257.091 156.182,257.757 155.5,258.5C 152.705,256.485 152.039,253.985 153.5,251C 150.814,249.832 148.147,248.665 145.5,247.5C 145.649,246.448 145.483,245.448 145,244.5C 143.02,242.101 140.853,240.101 138.5,238.5C 137.026,237.564 136.026,236.23 135.5,234.5C 133.949,231.437 131.782,228.771 129,226.5C 128.55,224.481 127.717,222.648 126.5,221C 126.833,220.667 127.167,220.333 127.5,220C 122.003,217.419 116.67,214.586 111.5,211.5C 108.091,209.466 105.091,206.966 102.5,204C 100.19,203.503 97.8568,203.337 95.5,203.5C 95.4386,201.408 94.4386,199.908 92.5,199C 85.8066,197.934 79.1399,196.767 72.5,195.5C 72.5,195.167 72.5,194.833 72.5,194.5C 72.5,193.5 72.5,192.5 72.5,191.5C 88.0143,189.092 103.014,190.759 117.5,196.5C 118.641,197.425 118.641,198.259 117.5,199C 121.244,199.929 124.744,199.429 128,197.5C 128.167,195.5 128.333,193.5 128.5,191.5C 128.657,188.186 127.991,185.186 126.5,182.5C 125.833,182.5 125.5,182.167 125.5,181.5C 127.255,174.539 126.255,167.873 122.5,161.5C 122.709,160.914 123.043,160.414 123.5,160C 120.475,156.212 119.475,152.045 120.5,147.5C 125.894,152.89 130.894,158.556 135.5,164.5 Z"/></g>
<g><path style="opacity:0.153" fill="#3d713e" d="M 96.5,187.5 C 89.2846,188.15 81.9513,188.983 74.5,190C 72.5789,190.36 70.9122,191.194 69.5,192.5C 70.0047,193.919 71.0047,194.585 72.5,194.5C 72.5,194.833 72.5,195.167 72.5,195.5C 64.8273,194.214 64.8273,192.048 72.5,189C 80.4393,187.679 88.4393,187.179 96.5,187.5 Z"/></g>
<g><path style="opacity:0.914" fill="#b51e28" d="M 191.5,180.5 C 191.048,183.203 190.381,185.87 189.5,188.5C 187.234,192.034 185.234,195.7 183.5,199.5C 185.021,192.579 187.688,186.245 191.5,180.5 Z"/></g>
<g><path style="opacity:1" fill="#f80612" d="M 212.5,201.5 C 217.196,203.455 220.529,202.121 222.5,197.5C 224.482,197.005 226.482,196.505 228.5,196C 233.72,192.901 238.72,189.734 243.5,186.5C 250.745,184.858 258.078,183.191 265.5,181.5C 267.818,181.997 270.152,182.33 272.5,182.5C 272.702,184.95 272.369,187.283 271.5,189.5C 269.473,189.338 267.473,189.505 265.5,190C 261.395,191.94 258.061,194.773 255.5,198.5C 251.197,200.445 246.863,202.445 242.5,204.5C 233.8,210.835 225.133,217.169 216.5,223.5C 213.187,221.805 211.187,222.805 210.5,226.5C 206.651,227.268 204.318,229.601 203.5,233.5C 201.659,234.23 199.825,234.897 198,235.5C 197.725,238.412 196.891,241.079 195.5,243.5C 193.167,243.833 191.833,245.167 191.5,247.5C 189.086,248.911 187.419,250.911 186.5,253.5C 185.18,254.942 183.514,255.608 181.5,255.5C 181.5,256.5 181.5,257.5 181.5,258.5C 179.5,258.5 177.5,258.5 175.5,258.5C 174.76,250.188 174.427,241.854 174.5,233.5C 174.5,231.833 174.5,230.167 174.5,228.5C 174.5,228.167 174.5,227.833 174.5,227.5C 176.739,222.676 178.739,217.676 180.5,212.5C 183.911,202.344 188.411,192.677 194,183.5C 194.333,183.167 194.667,182.833 195,182.5C 195.249,183.624 195.749,184.624 196.5,185.5C 198.849,183.796 199.849,181.463 199.5,178.5C 198.5,178.5 197.5,178.5 196.5,178.5C 199.06,174.643 200.56,170.31 201,165.5C 202.314,164.687 203.481,163.687 204.5,162.5C 206.949,162.755 209.115,164.089 211,166.5C 211.586,169.729 211.086,172.729 209.5,175.5C 210.833,175.5 212.167,175.5 213.5,175.5C 212.134,180.979 211.467,186.645 211.5,192.5C 211.502,195.686 211.835,198.686 212.5,201.5 Z M 216.5,182.5 C 216.833,182.5 217.167,182.5 217.5,182.5C 217.229,184.38 217.896,185.713 219.5,186.5C 219.5,186.833 219.5,187.167 219.5,187.5C 224.257,191.912 229.59,192.579 235.5,189.5C 230.999,191.916 226.666,194.583 222.5,197.5C 220.16,198.086 217.993,199.086 216,200.5C 215.691,199.234 215.191,198.067 214.5,197C 215.248,192.204 215.915,187.371 216.5,182.5 Z"/></g>
<g><path style="opacity:0.255" fill="#bf1f28" d="M 236.5,187.5 C 236.167,188.167 235.833,188.833 235.5,189.5C 229.59,192.579 224.257,191.912 219.5,187.5C 221.89,187.855 224.223,188.522 226.5,189.5C 229.83,189.372 232.83,188.372 235.5,186.5C 236.107,186.624 236.44,186.957 236.5,187.5 Z"/></g>
<g><path style="opacity:0.165" fill="#ba181e" d="M 243.5,186.5 C 238.72,189.734 233.72,192.901 228.5,196C 226.482,196.505 224.482,197.005 222.5,197.5C 226.666,194.583 230.999,191.916 235.5,189.5C 238.14,188.552 240.807,187.552 243.5,186.5 Z"/></g>
<g><path style="opacity:0.955" fill="#246d23" d="M 126.5,182.5 C 127.991,185.186 128.657,188.186 128.5,191.5C 128.333,193.5 128.167,195.5 128,197.5C 124.744,199.429 121.244,199.929 117.5,199C 118.641,198.259 118.641,197.425 117.5,196.5C 103.014,190.759 88.0143,189.092 72.5,191.5C 72.5,192.5 72.5,193.5 72.5,194.5C 71.0047,194.585 70.0047,193.919 69.5,192.5C 70.9122,191.194 72.5789,190.36 74.5,190C 81.9513,188.983 89.2846,188.15 96.5,187.5C 106.008,189.168 114.841,192.501 123,197.5C 124.326,197.245 125.326,196.578 126,195.5C 126.373,193.302 126.873,191.135 127.5,189C 126.713,186.901 126.38,184.734 126.5,182.5 Z"/></g>
<g><path style="opacity:0.6" fill="#bd2a2a" d="M 271.5,189.5 C 266.498,193.003 261.165,196.003 255.5,198.5C 258.061,194.773 261.395,191.94 265.5,190C 267.473,189.505 269.473,189.338 271.5,189.5 Z"/></g>
<g><path style="opacity:0.365" fill="#e0b646" d="M 37.5,184.5 C 40.5767,191.652 43.91,198.652 47.5,205.5C 43.9204,202.066 41.2537,198.066 39.5,193.5C 38.2366,191.304 37.2366,188.97 36.5,186.5C 36.5427,185.584 36.8761,184.917 37.5,184.5 Z"/></g>
<g><path style="opacity:1" fill="#2b6e29" d="M 72.5,195.5 C 79.1399,196.767 85.8066,197.934 92.5,199C 94.4386,199.908 95.4386,201.408 95.5,203.5C 87.7596,200.81 80.0929,198.143 72.5,195.5 Z"/></g>
<g><path style="opacity:1" fill="#d31321" d="M 216.5,182.5 C 215.915,187.371 215.248,192.204 214.5,197C 215.191,198.067 215.691,199.234 216,200.5C 217.993,199.086 220.16,198.086 222.5,197.5C 220.529,202.121 217.196,203.455 212.5,201.5C 212.171,195.794 212.505,190.128 213.5,184.5C 214.265,183.388 215.265,182.721 216.5,182.5 Z"/></g>
<g><path style="opacity:0.929" fill="#0e3d66" d="M 149.5,183.5 C 151.787,187.152 153.621,191.152 155,195.5C 155.465,200.1 156.299,204.6 157.5,209C 157.492,210.707 157.158,212.207 156.5,213.5C 154.425,203.464 152.092,193.464 149.5,183.5 Z"/></g>
<g><path style="opacity:0.863" fill="#b2252c" d="M 183.5,199.5 C 182.301,203.769 181.301,208.103 180.5,212.5C 178.739,217.676 176.739,222.676 174.5,227.5C 176.409,217.715 179.409,208.381 183.5,199.5 Z"/></g>
<g><path style="opacity:1" fill="#eca926" d="M 39.5,193.5 C 41.2537,198.066 43.9204,202.066 47.5,205.5C 49.4325,208.366 51.0991,211.366 52.5,214.5C 50.7028,213.27 48.7028,212.604 46.5,212.5C 43.0108,206.71 40.6775,200.377 39.5,193.5 Z"/></g>
<g><path style="opacity:0.78" fill="#1f6020" d="M 141.5,175.5 C 148.457,190.315 152.79,205.982 154.5,222.5C 152.334,213.869 150.167,205.202 148,196.5C 143.525,190.241 141.358,183.241 141.5,175.5 Z"/></g>
<g><path style="opacity:1" fill="#bc2626" d="M 255.5,198.5 C 241.854,207.328 228.521,216.662 215.5,226.5C 215.557,225.391 215.89,224.391 216.5,223.5C 225.133,217.169 233.8,210.835 242.5,204.5C 246.863,202.445 251.197,200.445 255.5,198.5 Z"/></g>
<g><path style="opacity:0.51" fill="#e8b256" d="M 263.5,220.5 C 263.714,218.856 263.38,217.356 262.5,216C 264.134,215.506 265.801,215.34 267.5,215.5C 267.5,213.833 267.5,212.167 267.5,210.5C 265.801,210.34 264.134,210.506 262.5,211C 257.183,214.38 251.516,216.88 245.5,218.5C 252.792,212.343 261.126,209.343 270.5,209.5C 270.833,210.333 271.167,211.167 271.5,212C 269.372,215.296 266.705,218.129 263.5,220.5 Z"/></g>
<g><path style="opacity:0.757" fill="#e6b248" d="M 298.5,175.5 C 297.396,180.827 296.063,186.161 294.5,191.5C 290.275,199.62 286.275,207.954 282.5,216.5C 282.043,217.298 281.376,217.631 280.5,217.5C 287.09,203.664 293.09,189.664 298.5,175.5 Z"/></g>
<g><path style="opacity:1" fill="#fca804" d="M 30.5,167.5 C 31.3292,172.154 32.1625,176.82 33,181.5C 33.8159,182.823 34.9826,183.489 36.5,183.5C 37.1667,183.5 37.5,183.833 37.5,184.5C 36.8761,184.917 36.5427,185.584 36.5,186.5C 37.2366,188.97 38.2366,191.304 39.5,193.5C 40.6775,200.377 43.0108,206.71 46.5,212.5C 48.7028,212.604 50.7028,213.27 52.5,214.5C 52.9361,216.746 53.6028,218.913 54.5,221C 53.8333,221.333 53.1667,221.667 52.5,222C 54.9757,223.309 56.9757,225.142 58.5,227.5C 59.7362,228.246 61.0695,228.579 62.5,228.5C 63.3795,231.262 64.5462,233.929 66,236.5C 70.2341,238.407 74.4008,241.074 78.5,244.5C 82.8574,247.864 87.1907,251.198 91.5,254.5C 91.281,255.675 91.6143,256.675 92.5,257.5C 95.986,258.172 99.1526,259.506 102,261.5C 103.158,261.002 103.991,260.169 104.5,259C 102.214,255.6 100.048,252.1 98,248.5C 96.6703,247.418 95.1703,246.751 93.5,246.5C 92.9553,244.407 92.122,242.407 91,240.5C 87.8533,237.683 85.02,234.516 82.5,231C 81.9056,230.536 81.2389,230.369 80.5,230.5C 79.0256,229.564 78.0256,228.23 77.5,226.5C 77.4606,225.417 77.1272,224.417 76.5,223.5C 79.6871,223.061 82.6871,223.894 85.5,226C 89.1516,226.499 92.8183,226.665 96.5,226.5C 96.8333,226.5 97.1667,226.5 97.5,226.5C 98.2899,227.794 99.2899,228.961 100.5,230C 107.435,232.314 113.435,235.147 118.5,238.5C 118.178,240.722 118.845,242.556 120.5,244C 122.333,245.167 124.167,246.333 126,247.5C 126.333,246.833 126.667,246.167 127,245.5C 128.777,247.79 130.944,249.457 133.5,250.5C 135.509,253.354 137.343,256.354 139,259.5C 141.707,262.045 144.54,264.379 147.5,266.5C 149.984,268.8 151.984,271.467 153.5,274.5C 155.34,280.879 157.507,287.212 160,293.5C 161,293.833 162,294.167 163,294.5C 163.837,296.351 164.671,298.184 165.5,300C 166.448,300.483 167.448,300.649 168.5,300.5C 169.139,306.07 171.139,311.07 174.5,315.5C 175.107,315.376 175.44,315.043 175.5,314.5C 175.328,313.508 175.662,312.842 176.5,312.5C 178.835,306.488 181.168,300.488 183.5,294.5C 183.449,301.63 181.782,308.296 178.5,314.5C 180.638,317.112 181.971,320.112 182.5,323.5C 169.167,323.5 155.833,323.5 142.5,323.5C 136.709,322.302 131.043,320.635 125.5,318.5C 120.005,315.553 114.172,313.219 108,311.5C 105.999,310.281 104.166,308.947 102.5,307.5C 100.257,306.526 97.924,306.192 95.5,306.5C 93.6917,304.381 92.025,302.048 90.5,299.5C 87.8931,300.034 85.3931,299.367 83,297.5C 81.1006,294.867 79.6006,292.034 78.5,289C 75.9999,288.625 73.6666,287.792 71.5,286.5C 69.7522,281.771 66.4188,278.604 61.5,277C 60.1279,275.758 59.1279,274.258 58.5,272.5C 57.3112,271.571 55.9778,271.238 54.5,271.5C 54.5,271.167 54.5,270.833 54.5,270.5C 53.1144,266.727 51.4478,263.061 49.5,259.5C 48.8165,259.863 48.1499,260.196 47.5,260.5C 43.5643,251.589 40.0643,242.589 37,233.5C 36.6174,234.056 36.1174,234.389 35.5,234.5C 32.1992,223.629 28.5326,212.962 24.5,202.5C 23.0109,198.764 22.3442,194.764 22.5,190.5C 21.7075,177.85 21.3742,165.183 21.5,152.5C 22.5,152.5 23.5,152.5 24.5,152.5C 26.1167,157.69 28.1167,162.69 30.5,167.5 Z"/></g>
<g><path style="opacity:1" fill="#f2a722" d="M 263.5,220.5 C 261.167,223.5 258.5,226.167 255.5,228.5C 255.5,226.833 255.5,225.167 255.5,223.5C 256.5,223.5 257.5,223.5 258.5,223.5C 258.034,221.799 258.034,220.299 258.5,219C 257.551,218.383 256.718,218.549 256,219.5C 255.692,218.692 255.192,218.025 254.5,217.5C 250.801,218.748 247.468,220.581 244.5,223C 242.833,223.333 241.167,223.667 239.5,224C 238.366,227.885 235.366,230.052 230.5,230.5C 228.344,233.998 225.344,236.331 221.5,237.5C 222.167,236.5 222.833,235.5 223.5,234.5C 224.96,232.537 226.627,230.704 228.5,229C 233.888,224.977 239.554,221.477 245.5,218.5C 251.516,216.88 257.183,214.38 262.5,211C 264.134,210.506 265.801,210.34 267.5,210.5C 267.5,212.167 267.5,213.833 267.5,215.5C 265.801,215.34 264.134,215.506 262.5,216C 263.38,217.356 263.714,218.856 263.5,220.5 Z"/></g>
<g><path style="opacity:1" fill="#256a24" d="M 95.5,203.5 C 97.8568,203.337 100.19,203.503 102.5,204C 105.091,206.966 108.091,209.466 111.5,211.5C 116.67,214.586 122.003,217.419 127.5,220C 127.167,220.333 126.833,220.667 126.5,221C 127.717,222.648 128.55,224.481 129,226.5C 131.782,228.771 133.949,231.437 135.5,234.5C 123.574,222.221 110.24,211.887 95.5,203.5 Z"/></g>
<g><path style="opacity:0.875" fill="#dfaf43" d="M 24.5,202.5 C 28.5326,212.962 32.1992,223.629 35.5,234.5C 36.8308,238.496 38.1641,242.496 39.5,246.5C 32.1321,232.731 27.1321,218.065 24.5,202.5 Z"/></g>
<g><path style="opacity:1" fill="#e7a932" d="M 52.5,214.5 C 56.2141,218.883 59.5475,223.55 62.5,228.5C 61.0695,228.579 59.7362,228.246 58.5,227.5C 56.9757,225.142 54.9757,223.309 52.5,222C 53.1667,221.667 53.8333,221.333 54.5,221C 53.6028,218.913 52.9361,216.746 52.5,214.5 Z"/></g>
<g><path style="opacity:1" fill="#dc181c" d="M 216.5,223.5 C 215.89,224.391 215.557,225.391 215.5,226.5C 208.833,232.167 202.167,237.833 195.5,243.5C 196.891,241.079 197.725,238.412 198,235.5C 199.825,234.897 201.659,234.23 203.5,233.5C 204.318,229.601 206.651,227.268 210.5,226.5C 211.187,222.805 213.187,221.805 216.5,223.5 Z"/></g>
<g><path style="opacity:1" fill="#e6ad3d" d="M 96.5,226.5 C 92.8183,226.665 89.1516,226.499 85.5,226C 82.6871,223.894 79.6871,223.061 76.5,223.5C 77.1272,224.417 77.4606,225.417 77.5,226.5C 74.167,224.841 72.5003,222.175 72.5,218.5C 74.1992,218.34 75.8659,218.506 77.5,219C 83.644,222.182 89.9773,224.682 96.5,226.5 Z"/></g>
<g><path style="opacity:1" fill="#eaa92d" d="M 47.5,260.5 C 43.8255,256.493 41.1588,251.827 39.5,246.5C 38.1641,242.496 36.8308,238.496 35.5,234.5C 36.1174,234.389 36.6174,234.056 37,233.5C 40.0643,242.589 43.5643,251.589 47.5,260.5 Z"/></g>
<g><path style="opacity:1" fill="#e7a837" d="M 62.5,228.5 C 68.1667,233.5 73.5,238.833 78.5,244.5C 74.4008,241.074 70.2341,238.407 66,236.5C 64.5462,233.929 63.3795,231.262 62.5,228.5 Z"/></g>
<g><path style="opacity:0.345" fill="#e0b056" d="M 223.5,234.5 C 222.833,235.5 222.167,236.5 221.5,237.5C 213.798,245.2 206.465,253.2 199.5,261.5C 202.579,255.696 206.412,250.363 211,245.5C 214.761,241.23 218.928,237.563 223.5,234.5 Z"/></g>
<g><path style="opacity:0.839" fill="#e6ad3c" d="M 97.5,226.5 C 111.539,231.514 123.539,239.514 133.5,250.5C 130.944,249.457 128.777,247.79 127,245.5C 126.667,246.167 126.333,246.833 126,247.5C 124.167,246.333 122.333,245.167 120.5,244C 118.845,242.556 118.178,240.722 118.5,238.5C 113.435,235.147 107.435,232.314 100.5,230C 99.2899,228.961 98.2899,227.794 97.5,226.5 Z"/></g>
<g><path style="opacity:1" fill="#fda802" d="M 311.5,207.5 C 309.982,212.627 309.149,217.96 309,223.5C 304.359,235.759 300.192,248.092 296.5,260.5C 295.504,260.414 294.671,260.748 294,261.5C 291.736,268.29 287.402,273.29 281,276.5C 280.506,278.134 280.34,279.801 280.5,281.5C 277.5,281.833 275.833,283.5 275.5,286.5C 274.167,286.5 272.833,286.5 271.5,286.5C 271.5,287.833 271.5,289.167 271.5,290.5C 270.07,290.579 268.736,290.246 267.5,289.5C 266.101,292.054 264.101,293.72 261.5,294.5C 261.5,295.5 261.5,296.5 261.5,297.5C 260.5,297.5 259.5,297.5 258.5,297.5C 258.5,298.5 258.5,299.5 258.5,300.5C 257.167,300.5 255.833,300.5 254.5,300.5C 254.5,301.5 254.5,302.5 254.5,303.5C 249.485,305.81 244.151,307.31 238.5,308C 235.822,311.483 232.489,313.983 228.5,315.5C 221.7,314.773 215.7,316.439 210.5,320.5C 206.988,319.945 203.988,320.612 201.5,322.5C 201.5,322.833 201.5,323.167 201.5,323.5C 195.167,323.5 188.833,323.5 182.5,323.5C 181.971,320.112 180.638,317.112 178.5,314.5C 181.782,308.296 183.449,301.63 183.5,294.5C 187.108,283.949 192.274,274.282 199,265.5C 199.49,264.207 199.657,262.873 199.5,261.5C 206.465,253.2 213.798,245.2 221.5,237.5C 225.344,236.331 228.344,233.998 230.5,230.5C 235.366,230.052 238.366,227.885 239.5,224C 241.167,223.667 242.833,223.333 244.5,223C 247.468,220.581 250.801,218.748 254.5,217.5C 255.192,218.025 255.692,218.692 256,219.5C 256.718,218.549 257.551,218.383 258.5,219C 258.034,220.299 258.034,221.799 258.5,223.5C 257.5,223.5 256.5,223.5 255.5,223.5C 255.5,225.167 255.5,226.833 255.5,228.5C 254.167,228.5 252.833,228.5 251.5,228.5C 251.366,232.153 249.7,233.653 246.5,233C 246.833,233.333 247.167,233.667 247.5,234C 244.583,234.662 243.25,236.495 243.5,239.5C 242.5,239.5 241.5,239.5 240.5,239.5C 240.084,242.406 239.418,245.239 238.5,248C 238.675,249.658 239.342,250.991 240.5,252C 246.665,253.052 251.665,251.218 255.5,246.5C 256.922,246.291 258.255,245.791 259.5,245C 265.084,239.078 270.917,233.578 277,228.5C 278.335,224.809 279.501,221.142 280.5,217.5C 281.376,217.631 282.043,217.298 282.5,216.5C 286.275,207.954 290.275,199.62 294.5,191.5C 295.873,191.657 297.207,191.49 298.5,191C 297.325,188.162 297.491,185.329 299,182.5C 299.579,186.386 300.412,186.386 301.5,182.5C 300.456,180.232 300.289,177.899 301,175.5C 301.414,175.957 301.914,176.291 302.5,176.5C 303.794,174.038 305.294,171.705 307,169.5C 306.544,166.572 306.544,163.572 307,160.5C 307.324,158.431 308.158,158.098 309.5,159.5C 310.75,171.502 310.75,183.502 309.5,195.5C 310.38,199.471 311.047,203.471 311.5,207.5 Z"/></g>
<g><path style="opacity:0.325" fill="#dbad44" d="M 80.5,230.5 C 81.2389,230.369 81.9056,230.536 82.5,231C 85.02,234.516 87.8533,237.683 91,240.5C 92.122,242.407 92.9553,244.407 93.5,246.5C 88.4393,241.771 84.106,236.438 80.5,230.5 Z"/></g>
<g><path style="opacity:0.576" fill="#265d29" d="M 154.5,222.5 C 156.889,233.251 158.556,244.251 159.5,255.5C 159.66,257.355 158.993,258.688 157.5,259.5C 157.5,258.5 157.5,257.5 157.5,256.5C 156.507,245.183 155.507,233.85 154.5,222.5 Z"/></g>
<g><path style="opacity:0.706" fill="#33652e" d="M 138.5,238.5 C 140.853,240.101 143.02,242.101 145,244.5C 145.483,245.448 145.649,246.448 145.5,247.5C 142.815,244.81 140.482,241.81 138.5,238.5 Z"/></g>
<g><path style="opacity:0.392" fill="#a12e31" d="M 174.5,228.5 C 174.5,230.167 174.5,231.833 174.5,233.5C 173.508,240.648 173.175,247.981 173.5,255.5C 172.835,251.849 172.501,248.015 172.5,244C 172.281,238.568 172.948,233.401 174.5,228.5 Z"/></g>
<g><path style="opacity:1" fill="#1a3b61" d="M 174.5,207.5 C 171.38,219.316 169.213,231.316 168,243.5C 166.789,247.462 164.789,248.129 162,245.5C 160.105,235.21 158.605,224.877 157.5,214.5C 160.403,216.551 161.07,219.218 159.5,222.5C 160.865,229.455 161.865,236.455 162.5,243.5C 164.144,243.714 165.644,243.38 167,242.5C 166.52,229.995 169.02,218.329 174.5,207.5 Z"/></g>
<g><path style="opacity:0.129" fill="#b12c29" d="M 195.5,243.5 C 194.5,245.167 193.167,246.5 191.5,247.5C 191.833,245.167 193.167,243.833 195.5,243.5 Z"/></g>
<g><path style="opacity:0.361" fill="#e3ab39" d="M 280.5,217.5 C 279.501,221.142 278.335,224.809 277,228.5C 270.917,233.578 265.084,239.078 259.5,245C 258.255,245.791 256.922,246.291 255.5,246.5C 260.438,242.064 265.271,237.397 270,232.5C 273.522,227.434 277.022,222.434 280.5,217.5 Z"/></g>
<g><path style="opacity:0.988" fill="#e3ad39" d="M 311.5,207.5 C 311.833,207.5 312.167,207.5 312.5,207.5C 311.02,226.438 305.687,244.105 296.5,260.5C 300.192,248.092 304.359,235.759 309,223.5C 309.149,217.96 309.982,212.627 311.5,207.5 Z"/></g>
<g><path style="opacity:1" fill="#21641b" d="M 145.5,247.5 C 148.147,248.665 150.814,249.832 153.5,251C 152.039,253.985 152.705,256.485 155.5,258.5C 156.182,257.757 156.849,257.091 157.5,256.5C 157.5,257.5 157.5,258.5 157.5,259.5C 157.157,261.225 156.157,261.725 154.5,261C 150.859,256.873 147.859,252.373 145.5,247.5 Z"/></g>
<g><path style="opacity:0.078" fill="#b8323b" d="M 191.5,247.5 C 190.581,250.089 188.914,252.089 186.5,253.5C 187.419,250.911 189.086,248.911 191.5,247.5 Z"/></g>
<g><path style="opacity:0.247" fill="#e9aa35" d="M 255.5,228.5 C 250.504,233.664 245.671,238.997 241,244.5C 240.333,246.5 240.333,248.5 241,250.5C 241.561,251.022 242.228,251.355 243,251.5C 247.49,250.5 251.657,248.834 255.5,246.5C 251.665,251.218 246.665,253.052 240.5,252C 239.342,250.991 238.675,249.658 238.5,248C 239.418,245.239 240.084,242.406 240.5,239.5C 241.5,239.5 242.5,239.5 243.5,239.5C 243.25,236.495 244.583,234.662 247.5,234C 247.167,233.667 246.833,233.333 246.5,233C 249.7,233.653 251.366,232.153 251.5,228.5C 252.833,228.5 254.167,228.5 255.5,228.5 Z"/></g>
<g><path style="opacity:1" fill="#e2a931" d="M 93.5,246.5 C 95.1703,246.751 96.6703,247.418 98,248.5C 100.048,252.1 102.214,255.6 104.5,259C 103.991,260.169 103.158,261.002 102,261.5C 99.1526,259.506 95.986,258.172 92.5,257.5C 91.6143,256.675 91.281,255.675 91.5,254.5C 95.487,256.394 99.487,257.894 103.5,259C 99.9531,254.959 96.6198,250.792 93.5,246.5 Z"/></g>
<g><path style="opacity:1" fill="#c72127" d="M 174.5,233.5 C 174.427,241.854 174.76,250.188 175.5,258.5C 177.5,258.5 179.5,258.5 181.5,258.5C 181.5,257.5 181.5,256.5 181.5,255.5C 183.514,255.608 185.18,254.942 186.5,253.5C 184.949,257.256 182.449,260.256 179,262.5C 175.805,261.149 173.972,258.815 173.5,255.5C 173.175,247.981 173.508,240.648 174.5,233.5 Z"/></g>
<g><path style="opacity:0.651" fill="#dfaf46" d="M 133.5,250.5 C 139.278,254.94 143.945,260.273 147.5,266.5C 144.54,264.379 141.707,262.045 139,259.5C 137.343,256.354 135.509,253.354 133.5,250.5 Z"/></g>
<g><path style="opacity:0.698" fill="#e5a936" d="M 54.5,270.5 C 51.3954,267.725 49.0621,264.392 47.5,260.5C 48.1499,260.196 48.8165,259.863 49.5,259.5C 51.4478,263.061 53.1144,266.727 54.5,270.5 Z"/></g>
<g><path style="opacity:1" fill="#e8ad35" d="M 296.5,260.5 C 286.529,278.804 272.529,293.137 254.5,303.5C 254.5,302.5 254.5,301.5 254.5,300.5C 255.833,300.5 257.167,300.5 258.5,300.5C 258.5,299.5 258.5,298.5 258.5,297.5C 259.5,297.5 260.5,297.5 261.5,297.5C 261.5,296.5 261.5,295.5 261.5,294.5C 264.101,293.72 266.101,292.054 267.5,289.5C 268.736,290.246 270.07,290.579 271.5,290.5C 271.5,289.167 271.5,287.833 271.5,286.5C 272.833,286.5 274.167,286.5 275.5,286.5C 275.833,283.5 277.5,281.833 280.5,281.5C 280.34,279.801 280.506,278.134 281,276.5C 287.402,273.29 291.736,268.29 294,261.5C 294.671,260.748 295.504,260.414 296.5,260.5 Z"/></g>
<g><path style="opacity:1" fill="#eaa92e" d="M 54.5,271.5 C 55.9778,271.238 57.3112,271.571 58.5,272.5C 59.1279,274.258 60.1279,275.758 61.5,277C 66.4188,278.604 69.7522,281.771 71.5,286.5C 73.6666,287.792 75.9999,288.625 78.5,289C 79.6006,292.034 81.1006,294.867 83,297.5C 85.3931,299.367 87.8931,300.034 90.5,299.5C 92.025,302.048 93.6917,304.381 95.5,306.5C 79.1313,298.141 65.4646,286.475 54.5,271.5 Z"/></g>
<g><path style="opacity:0.761" fill="#e4b34a" d="M 199.5,261.5 C 199.657,262.873 199.49,264.207 199,265.5C 192.274,274.282 187.108,283.949 183.5,294.5C 181.168,300.488 178.835,306.488 176.5,312.5C 180.138,293.566 187.805,276.566 199.5,261.5 Z"/></g>
<g><path style="opacity:1" fill="#ecab2f" d="M 153.5,274.5 C 155.47,276.647 157.303,278.98 159,281.5C 162.705,287.577 165.872,293.91 168.5,300.5C 167.448,300.649 166.448,300.483 165.5,300C 164.671,298.184 163.837,296.351 163,294.5C 162,294.167 161,293.833 160,293.5C 157.507,287.212 155.34,280.879 153.5,274.5 Z"/></g>
<g><path style="opacity:0.851" fill="#dfac3b" d="M 168.5,300.5 C 170.833,305.167 173.167,309.833 175.5,314.5C 175.44,315.043 175.107,315.376 174.5,315.5C 171.139,311.07 169.139,306.07 168.5,300.5 Z"/></g>
<g><path style="opacity:1" fill="#eaae38" d="M 254.5,303.5 C 246.527,308.833 237.86,312.833 228.5,315.5C 232.489,313.983 235.822,311.483 238.5,308C 244.151,307.31 249.485,305.81 254.5,303.5 Z"/></g>
<g><path style="opacity:0.733" fill="#e2ad42" d="M 95.5,306.5 C 97.924,306.192 100.257,306.526 102.5,307.5C 104.166,308.947 105.999,310.281 108,311.5C 114.172,313.219 120.005,315.553 125.5,318.5C 114.782,316.136 104.782,312.136 95.5,306.5 Z"/></g>
<g><path style="opacity:0.8" fill="#e3ab3d" d="M 228.5,315.5 C 222.849,318.082 216.849,319.749 210.5,320.5C 215.7,316.439 221.7,314.773 228.5,315.5 Z"/></g>
<g><path style="opacity:0.835" fill="#dfa83f" d="M 210.5,320.5 C 207.829,322.118 204.829,322.785 201.5,322.5C 203.988,320.612 206.988,319.945 210.5,320.5 Z"/></g>
</svg>
